# AST/ASF file generated using VICON BodyLanguage
# -----------------------------------------------
:version 1.10
:name VICON
:units
  mass 1.0
  length 0.45
  angle deg
:documentation
   .ast/.asf automatically generated from VICON data using
   VICON BodyBuilder and BodyLanguage model FoxedUp or BRILLIANT.MOD
:root
   order TX TY TZ RX RY RZ
   axis XYZ
   position 0 0 0  
   orientation 0 0 0 
:bonedata
  begin
     id 1 
     name lhipjoint
     direction 0.521689 -0.742065 0.420928 
     length 2.47002 
     axis 0 0 0  XYZ
  end
  begin
     id 2 
     name lfemur
     direction 0.34202 -0.939693 0  
     length 7.24654  
     axis 0 0 20  XYZ
    dof rx ry rz
    limits (-160.0 20.0)
           (-70.0 70.0)
           (-60.0 70.0)
  end
  begin
     id 3 
     name ltibia
     direction 0.34202 -0.939693 0   
     length 8.04849   
     axis 0 0 20   XYZ
    dof rx
    limits (-10.0 170.0)
  end
  begin
     id 4 
     name lfoot
     direction 0.0745411 -0.2048 0.975961   
     length 1.72367   
     axis -90 7.62852e-016 20   XYZ
    dof rx rz
    limits (-45.0 90.0)
           (-70.0 20.0)
  end
  begin
     id 5 
     name ltoes
     direction 1.53556e-011 -4.21901e-011 1   
     length 0.87311   
     axis -90 7.62852e-016 20   XYZ
    dof rx
    limits (-90.0 20.0)
  end
  begin
     id 6 
     name rhipjoint
     direction -0.52849 -0.738415 0.418857   
     length 2.48223  
     axis 0 0 0  XYZ 
  end
  begin
     id 7 
     name rfemur
     direction -0.34202 -0.939693 0   
     length 7.15571   
     axis 0 0 -20   XYZ
    dof rx ry rz
    limits (-160.0 20.0)
           (-70.0 70.0)
           (-70.0 60.0)
  end
  begin
     id 8 
     name rtibia
     direction -0.34202 -0.939693 0   
     length 7.81659   
     axis 0 0 -20   XYZ
    dof rx
    limits (-10.0 170.0)
 end
 begin
     id 9 
     name rfoot
     direction -0.0917348 -0.252039 0.963359   
     length 1.84382  
     axis -90 -7.62852e-016 -20   XYZ
    dof rx rz
    limits (-45.0 90.0)
           (-20.0 70.0)
  end
  begin
     id 10 
     name rtoes
     direction -1.53551e-011 -4.21879e-011 1   
     length 0.927771   
     axis -90 -7.62852e-016 -20   XYZ
    dof rx
    limits (-90.0 20.0)
  end
  begin
     id 11 
     name lowerback
     direction 0.00583058 0.999822 0.0179296   
     length 2.1429   
     axis 0 0 0   XYZ
    dof rx ry rz
    limits (-20.0 45.0)
           (-30.0 30.0)
           (-30.0 30.0)
  end
  begin
     id 12 
     name upperback
     direction -0.0137999 0.999752 -0.0175071   
     length 2.14252   
     axis 0 0 0   XYZ
    dof rx ry rz
    limits (-20.0 45.0)
           (-30.0 30.0)
           (-30.0 30.0)
  end
  begin
     id 13 
     name thorax
     direction -0.0158036 0.99955 -0.0254909   
     length 2.1383   
     axis 0 0 0   XYZ
    dof rx ry rz
    limits (-20.0 45.0)
           (-30.0 30.0)
           (-30.0 30.0)
  end
  begin
     id 14 
     name lowerneck
     direction -0.0101179 0.999403 -0.0330262   
     length 1.65808   
     axis 0 0 0   XYZ
    dof rx ry rz
    limits (-20.0 45.0)
           (-30.0 30.0)
           (-30.0 30.0)
  end
  begin
     id 15 
     name upperneck
     direction 0.0497734 0.995978 -0.074501   
     length 1.5897   
     axis 0 0 0   XYZ
    dof rx ry rz
    limits (-20.0 45.0)
           (-30.0 30.0)
           (-30.0 30.0)
  end
  begin
     id 16
     name head
     direction 0.0189524 0.999519 -0.0245438  
     length 1.74024  
     axis 0 0 0   XYZ
    dof rx ry rz
    limits (-20.0 45.0)
           (-30.0 30.0)
           (-30.0 30.0)
  end
  begin
     id 17 
     name lclavicle
     direction 0.945604 0.324422 0.0241537  
     length 3.59089  
     axis 0 0 0   XYZ
    dof ry rz
    limits (-20.0 10.0)
           (0.0 20.0)
  end
  begin
     id 18 
     name lhumerus
     direction 1 -4.48964e-011 -2.63524e-027   
     length 5.2391   
     axis 180 -30 -90   XYZ
    dof rx ry rz
    limits (-60.0 90.0)
           (-90.0 90.0)
           (-90.0 90.0)
  end
  begin
     id 19
     name lradius
     direction 1 -4.48969e-011 3.86978e-028   
     length 3.31467   
     axis 180 -30 -90   XYZ
    dof rx
    limits (-10.0 170.0)
  end
  begin
     id 20
     name lwrist
     direction 1 -4.48963e-011 7.20928e-028   
     length 1.65734   
     axis -5.52449e-016 90 90   XYZ
    dof ry
    limits (-180.0 0.0)
 end
  begin
     id 21 
     name lhand
     direction 1 -4.48964e-011 1.44186e-027   
     length 0.9659   
     axis -9.20027e-016 90 90   XYZ
    dof rx rz
    limits (-90.0 90.0)
           (-45.0 45.0)
  end
  begin
     id 22 
     name lfingers
     direction 1 -4.48965e-011 2.88371e-027   
     length 0.778733   
     axis -1.84005e-015 90 90   XYZ
    dof rx
    limits (0.0 90.0)
  end
  begin
     id 23
     name lthumb
     direction 0.707107 -6.34931e-011 0.707107   
     length 1.11811   
     axis -90 45 2.85299e-015   XYZ
    dof rx rz
    limits (-45.0 45.0)
           (-45.0 45.0)
  end
  begin
     id 24 
     name rclavicle
     direction -0.923762 0.370785 0.0958234   
     length 3.54196  
     axis 0 0 0   XYZ 
    dof ry rz
    limits (-10.0 20.0)
           (-20.0 0.0)
  end
  begin
     id 25 
     name rhumerus
     direction -1 -4.48966e-011 1.18702e-017  
     length 5.30252   
     axis 180 30 90   XYZ
    dof rx ry rz
    limits (-90.0 60.0)
           (-90.0 90.0)
           (-90.0 90.0)
  end
  begin
     id 26 
     name rradius
     direction -1 -4.48966e-011 4.46736e-027   
     length 3.67875   
     axis 180 30 90   XYZ
    dof rx
    limits (-10.0 170.0)
  end
  begin
     id 27 
     name rwrist
     direction -1 -4.48966e-011 7.20928e-028   
     length 1.83937   
     axis -5.52449e-016 -90 -90   XYZ
    dof ry
    limits (-180.0 0.0)
  end
  begin
     id 28
     name rhand
     direction -1 -4.48973e-011 1.44186e-027   
     length 0.594811   
     axis -9.20027e-016 -90 -90   XYZ
    dof rx rz
    limits (-90.0 90.0)
           (-45.0 45.0)
  end
  begin
     id 29
     name rfingers
     direction -1 -4.48963e-011 2.88371e-027   
     length 0.479552   
     axis -1.84005e-015 -90 -90   XYZ
    dof rx
    limits (0.0 90.0)
  end
  begin
     id 30
     name rthumb
     direction -0.707107 -6.34932e-011 0.707107   
     length 0.688544   
     axis -90 -45 -2.85299e-015   XYZ
    dof rx rz
    limits (-45.0 45.0)
           (-45.0 45.0)
  end
:hierarchy
  begin
    root lhipjoint rhipjoint lowerback
    lhipjoint lfemur
    lfemur ltibia
    ltibia lfoot
    lfoot ltoes
    rhipjoint rfemur
    rfemur rtibia
    rtibia rfoot
    rfoot rtoes
    lowerback upperback
    upperback thorax
    thorax lowerneck lclavicle rclavicle
    lowerneck upperneck
    upperneck head
    lclavicle lhumerus
    lhumerus lradius
    lradius lwrist
    lwrist lhand lthumb
    lhand lfingers
    rclavicle rhumerus
    rhumerus rradius
    rradius rwrist
    rwrist rhand rthumb
    rhand rfingers
  end

#!OML:ASF E:\acrobat2\Project_11_07_03\Capture day 1\Session 1\Acrobat.ASF
:FULLY-SPECIFIED
:DEGREES
500
root 8.72357 13.2955 -11.3542 217.81 -1.61447 -181.71
lowerback 23.7567 1.18439 0.766242
upperback 10.3655 -0.407461 -0.778163
thorax -1.85268 -0.954491 -1.14641
lowerneck -2.23831 -1.56931 -1.65538
upperneck -24.2987 -3.66662 3.81906
head -6.94854 -3.04508 1.84939
rclavicle 3.18055e-015 9.79014e-015
rhumerus 31.2623 9.80333 -76.2986
rradius 17.949
rwrist 2.02301
rhand -3.36752 -37.2362
rfingers 7.12502
rthumb 22.3612 -425.962
lclavicle 3.18055e-015 9.79014e-015
lhumerus 35.8076 -25.4352 61.1329
lradius 15.554
lwrist 7.00425
lhand -17.303 341.075
lfingers 7.12502
lthumb 8.94295 10.8652
rfemur 138.88 -230.396 -256.524
rtibia -6.6752
rfoot -102.356 1.70848
rtoes 51.6145
lfemur -29.8982 -20.8542 52.6325
ltibia -13.1185
lfoot -62.3214 -17.6069
ltoes 54.1811
501
root 8.71821 13.317 -11.4063 217.575 -1.71559 -181.746
lowerback 22.9166 1.15905 0.78891
upperback 10.1558 -0.334867 -0.778825
thorax -1.67021 -0.882528 -1.18142
lowerneck -1.88818 -1.63078 -1.7741
upperneck -24.3395 -3.70211 4.00685
head -7.01398 -3.05317 1.93959
rclavicle -1.03368e-014 -1.07344e-014
rhumerus 31.1762 9.44848 -76.3494
rradius 17.9393
rwrist 3.06484
rhand -3.28442 -36.7183
rfingers 7.12502
rthumb 22.441 -425.435
lclavicle -1.03368e-014 -1.07344e-014
lhumerus 35.1539 -26.1223 61.3689
lradius 15.6602
lwrist 7.11399
lhand -17.2246 340.428
lfingers 7.12502
lthumb 9.01862 10.2147
rfemur 139.789 -230.056 -255.297
rtibia -6.7434
rfoot -101.539 1.26326
rtoes 51.5166
lfemur -30.025 -21.4266 52.6329
ltibia -12.9059
lfoot -62.547 -18.0891
ltoes 54.4204
502
root 8.71505 13.3401 -11.4575 217.221 -1.72448 -181.814
lowerback 22.2368 1.11787 0.702902
upperback 9.93222 -0.317864 -0.829291
thorax -1.58052 -0.844493 -1.19235
lowerneck -1.40794 -1.63031 -1.85384
upperneck -24.4637 -3.65738 4.16993
head -7.13339 -3.02689 2.01722
rclavicle 7.95139e-016 5.56597e-015
rhumerus 31.0193 9.20916 -76.4685
rradius 18.0398
rwrist 4.054
rhand -2.74917 -36.3239
rfingers 7.12502
rthumb 22.9547 -424.977
lclavicle 7.95139e-016 5.56597e-015
lhumerus 34.4198 -26.8509 61.4167
lradius 15.7754
lwrist 7.38739
lhand -17.3616 339.76
lfingers 7.12502
lthumb 8.88642 9.553
rfemur 141.292 -228.872 -253.189
rtibia -6.85536
rfoot -99.6014 0.227125
rtoes 51.2124
lfemur -29.9359 -22.1364 52.4645
ltibia -12.8161
lfoot -62.8344 -18.1759
ltoes 54.5701
503
root 8.71128 13.3635 -11.506 216.828 -1.68507 -181.883
lowerback 21.6262 1.06874 0.498538
upperback 9.68239 -0.33257 -0.826994
thorax -1.55203 -0.827449 -1.07144
lowerneck -1.29994 -1.56426 -1.9709
upperneck -24.1553 -3.52788 4.19244
head -7.05097 -2.92566 2.0276
rclavicle 6.16232e-015 -2.03754e-015
rhumerus 30.8883 10.2767 -75.499
rradius 18.4191
rwrist 3.2669
rhand -2.48973 -36.3691
rfingers 7.12502
rthumb 23.2036 -424.991
lclavicle 6.16232e-015 -2.03754e-015
lhumerus 33.3604 -27.2064 61.814
lradius 16.0496
lwrist 7.2885
lhand -17.2741 339.462
lfingers 7.12502
lthumb 8.97084 9.25147
rfemur 142.996 -227.033 -250.712
rtibia -6.95403
rfoot -96.9119 -1.30043
rtoes 50.5899
lfemur -29.8775 -22.8659 52.2799
ltibia -12.6351
lfoot -63.043 -18.3017
ltoes 54.7658
504
root 8.71331 13.3861 -11.5592 216.584 -1.69062 -181.861
lowerback 20.8042 1.03566 0.312447
upperback 9.43299 -0.30859 -0.792664
thorax -1.4127 -0.786356 -0.937159
lowerneck -1.45074 -1.55111 -2.13307
upperneck -23.7397 -3.46103 4.3287
head -6.88371 -2.86332 2.07745
rclavicle 4.87022e-015 3.8266e-015
rhumerus 31.0488 11.559 -74.1227
rradius 18.6534
rwrist 2.22394
rhand -2.14937 -36.5879
rfingers 7.12502
rthumb 23.5301 -425.169
lclavicle 4.87022e-015 3.8266e-015
lhumerus 32.3032 -27.6813 62.1412
lradius 16.3418
lwrist 7.50408
lhand -17.3091 338.998
lfingers 7.12502
lthumb 8.93707 8.78876
rfemur 143.691 -226.37 -249.538
rtibia -6.90346
rfoot -95.7058 -2.06605
rtoes 50.1812
lfemur -29.9559 -23.4015 52.2722
ltibia -12.3215
lfoot -63.145 -18.6725
ltoes 54.9655
